# xmcd
#
# Track frame offsets:
#	150
#	12760
#	24792
#	37437
#	50145
#	62922
#	76142
#	88770
#	99740
#	110830
#	122967
#	136712
#	147837
#	157505
# Disc length: 2265 seconds
# Revision: 5
# Processed by: cddbd v1.5.1PL0 Copyright (c) Steve Scherf et al.
#
# Submitted via: libkcddb 0.20
#
DISCID=b808d70e
DTITLE=Various Artist - Don't Fence Me In:Western Music Early Golden Era
DYEAR=1900
DGENRE=Country
TTITLE0=Gene Autry - Back In the Saddle Again
TTITLE1=The Sons of the Pioneers - Tumblin' Tumbleweeds
TTITLE2=Tex Ritter - Jingle, Jangle, Jingle
TTITLE3=Roy Rogers - Don't Fence Me In
TTITLE4=Eddie Dean - On the Banks of the Sunny San Juan
TTITLE5=Bob Wills and His Texas Playboys - Dusty Skies
TTITLE6=Ray Whitley - Wah-Hoo!
TTITLE7=Elton Britt - Give Me a Pinto Pal
TTITLE8=Rosalie Allen - Wide Rolling Plains
TTITLE9=Louise Massey and the Westerners - My Adobe Hacienda
TTITLE10=Wilf Carter (Montana Slim) - There's a Love Knot in My Lariat
TTITLE11=Jimmy Wakely Trio - Cimarron
TTITLE12=Jimmy Wakely - Dust
TTITLE13=The Sons of the Pioneers - Tumbleweed Trail
EXTD=
EXTT0=Gene Autry
EXTT1=The Sons of the Pioneers
EXTT2=Tex Ritter
EXTT3=Roy Rogers
EXTT4=Eddie Dean
EXTT5=Bob Wills and His Texas Playboys
EXTT6=Ray Whitley
EXTT7=Elton Britt
EXTT8=Rosalie Allen
EXTT9=Louise Massey and the Westerners
EXTT10=Wilf Carter (Montana Slim)
EXTT11=Jimmy Wakely Trio
EXTT12=Jimmy Wakely
EXTT13=The Sons of the Pioneers
PLAYORDER=
